<svg xmlns="http://www.w3.org/2000/svg" xmlns:xlink="http://www.w3.org/1999/xlink" width="83.413" height="92" viewBox="0 0 83.413 92">
  <defs>
    <filter id="Union_1" x="0" y="18.066" width="83.413" height="73.934" filterUnits="userSpaceOnUse">
      <feOffset dy="3" input="SourceAlpha"/>
      <feGaussianBlur stdDeviation="3" result="blur"/>
      <feFlood flood-opacity="0.161"/>
      <feComposite operator="in" in2="blur"/>
      <feComposite in="SourceGraphic"/>
    </filter>
  </defs>
  <g id="Group_33" data-name="Group 33" transform="translate(-762.991 -1835)">
    <g transform="matrix(1, 0, 0, 1, 762.99, 1835)" filter="url(#Union_1)">
      <g id="Union_1-2" data-name="Union 1" transform="translate(57.9 60.97)" fill="#fff">
        <path d="M -11.89350032806396 18.53140068054199 L -20.89349937438965 18.53140068054199 C -25.0290699005127 18.53140068054199 -28.39360046386719 15.16687107086182 -28.39360046386719 11.03130149841309 L -28.39360046386719 -19.75190925598145 L -28.39360046386719 -20.04057884216309 L -28.64360046386719 -20.1849193572998 L -47.152099609375 -30.87100791931152 C -48.34576034545898 -31.5599479675293 -48.75616836547852 -33.09177780151367 -48.06705093383789 -34.28575897216797 L -47.56668853759766 -35.15239715576172 C -47.12160110473633 -35.92356872558594 -46.29098129272461 -36.402587890625 -45.39894866943359 -36.402587890625 C -44.96313858032227 -36.402587890625 -44.53192901611328 -36.28666687011719 -44.15193939208984 -36.06734848022461 L -28.7066707611084 -27.14985847473145 L -28.18202018737793 -26.84693908691406 L -27.98410034179688 -27.41952896118164 C -26.94020080566406 -30.43964767456055 -24.0907096862793 -32.46879959106445 -20.89349937438965 -32.46879959106445 L -11.89350032806396 -32.46879959106445 C -10.35951042175293 -32.46879959106445 -8.884779930114746 -32.00898742675781 -7.628730297088623 -31.13907814025879 C -6.400870323181152 -30.2886791229248 -5.462810039520264 -29.10805892944336 -4.915960311889648 -27.72483825683594 L -4.717339992523193 -27.22244834899902 L -4.231790065765381 -27.45926856994629 L 11.97589015960693 -35.36429977416992 C 12.3209400177002 -35.53265762329102 12.68881034851074 -35.61800003051758 13.06935024261475 -35.61800003051758 C 14.03415966033936 -35.61800003051758 14.89601993560791 -35.07965850830078 15.31857967376709 -34.21305847167969 L 15.75685977935791 -33.31399917602539 C 16.04965019226074 -32.71389770507813 16.09112930297852 -32.03577041625977 15.87372016906738 -31.40437889099121 C 15.65627956390381 -30.77288818359375 15.20594024658203 -30.26391792297363 14.60565948486328 -29.97121810913086 L -4.112590312957764 -20.84170913696289 L -4.393400192260742 -20.70473861694336 L -4.393400192260742 -20.39230918884277 L -4.393400192260742 11.03130149841309 C -4.393400192260742 15.16687107086182 -7.757930278778076 18.53140068054199 -11.89350032806396 18.53140068054199 Z" stroke="none"/>
        <path d="M -11.89350032806396 18.03140068054199 C -8.03363037109375 18.03140068054199 -4.893400192260742 14.8911714553833 -4.893400192260742 11.03130149841309 L -4.893400192260742 -20.39230918884277 L -4.893400192260742 -21.01717758178711 L -4.331769943237305 -21.29109764099121 L 14.38651943206787 -30.42063903808594 C 14.86674022674561 -30.65479850769043 15.22700023651123 -31.06197929382324 15.40095996856689 -31.56715774536133 C 15.57487964630127 -32.07225036621094 15.54170989990234 -32.61470794677734 15.3074197769165 -33.09490966796875 L 14.86915969848633 -33.99391937255859 C 14.5310697555542 -34.68727874755859 13.84142017364502 -35.11800003051758 13.06935024261475 -35.11800003051758 C 12.76541996002197 -35.11800003051758 12.47132015228271 -35.04969024658203 12.19507026672363 -34.91490936279297 L -4.012609958648682 -27.00987815856934 L -4.983710289001465 -26.5362377166748 L -5.380939960479736 -27.54100799560547 C -5.891340255737305 -28.83202934265137 -6.767050266265869 -29.93407821655273 -7.913410186767578 -30.72802925109863 C -9.085430145263672 -31.53974914550781 -10.46172046661377 -31.96879768371582 -11.89350032806396 -31.96879768371582 L -20.89349937438965 -31.96879768371582 C -23.87764930725098 -31.96879768371582 -26.53724098205566 -30.07494926452637 -27.51153945922852 -27.25618934631348 L -27.9073600769043 -26.11101913452148 L -28.95668029785156 -26.71684837341309 L -44.40187835693359 -35.63430786132813 C -44.70597076416016 -35.80981826782227 -45.05075073242188 -35.902587890625 -45.39894866943359 -35.902587890625 C -46.11288833618164 -35.902587890625 -46.77756881713867 -35.51939010620117 -47.1336784362793 -34.90238952636719 L -47.63399887084961 -34.03582000732422 C -48.18531036376953 -33.08062744140625 -47.85702896118164 -31.85517883300781 -46.90209197998047 -31.30401802062988 L -28.39359092712402 -20.61792945861816 L -27.89360046386719 -20.32924842834473 L -27.89360046386719 -19.75190925598145 L -27.89360046386719 11.03130149841309 C -27.89360046386719 14.8911714553833 -24.75337028503418 18.03140068054199 -20.89349937438965 18.03140068054199 L -11.89350032806396 18.03140068054199 M -11.89350032806396 19.03140068054199 L -20.89349937438965 19.03140068054199 C -25.31159973144531 19.03140068054199 -28.89360046386719 15.44940185546875 -28.89360046386719 11.03130149841309 L -28.89360046386719 -19.75190925598145 L -47.402099609375 -30.43799781799316 C -48.83670043945313 -31.26599884033203 -49.32809829711914 -33.10109710693359 -48.50009918212891 -34.53569793701172 L -47.99969863891602 -35.40239715576172 C -47.4443473815918 -36.36460494995117 -46.43569946289063 -36.90259170532227 -45.39895248413086 -36.90259170532227 C -44.88996505737305 -36.90259170532227 -44.37439346313477 -36.77304458618164 -43.90200042724609 -36.50039672851563 L -28.4566707611084 -27.5828685760498 C -27.37326049804688 -30.71729850769043 -24.39611053466797 -32.96879959106445 -20.89349937438965 -32.96879959106445 L -11.89350032806396 -32.96879959106445 C -8.513319969177246 -32.96879959106445 -5.622660160064697 -30.87235832214355 -4.450980186462402 -27.90866851806641 L 11.75669956207275 -35.81369781494141 C 12.17991161346436 -36.02018737792969 12.62803936004639 -36.11800003051758 13.06934452056885 -36.11800003051758 C 14.18028354644775 -36.11800003051758 15.24818801879883 -35.49822998046875 15.76799964904785 -34.43219757080078 L 16.20630073547363 -33.53310012817383 C 16.9326000213623 -32.04449844360352 16.31430053710938 -30.24809837341309 14.82479953765869 -29.52179908752441 L -3.893400192260742 -20.39230918884277 L -3.893400192260742 11.03130149841309 C -3.893400192260742 15.44940185546875 -7.475399971008301 19.03140068054199 -11.89350032806396 19.03140068054199 Z" stroke="none" fill="#707070"/>
      </g>
    </g>
    <g id="Ellipse_12" data-name="Ellipse 12" transform="translate(788 1835)" fill="#fff" stroke="#707070" stroke-width="1">
      <circle cx="17" cy="17" r="17" stroke="none"/>
      <circle cx="17" cy="17" r="16.5" fill="none"/>
    </g>
  </g>
</svg>
